<?xml version="1.0" standalone="no"?>
<svg xmlns:xlink="http://www.w3.org/1999/xlink" id="wave" style="transform:rotate(0deg); transition: 0.3s" viewBox="0 0 1440 360" version="1.1" xmlns="http://www.w3.org/2000/svg"><defs><linearGradient id="sw-gradient-0" x1="0" x2="0" y1="1" y2="0"><stop stop-color="rgba(145, 202, 98, 0.38823529411764707)" offset="0%"/><stop stop-color="rgba(71, 128, 119, 0.3607843137254902)" offset="100%"/></linearGradient></defs><path style="transform:translate(0, 0px); opacity:1" fill="url(#sw-gradient-0)" d="M0,0L240,288L480,324L720,72L960,288L1200,180L1440,0L1680,180L1920,108L2160,108L2400,36L2640,72L2880,324L3120,216L3360,144L3600,0L3840,252L4080,36L4320,144L4560,144L4800,0L5040,108L5280,288L5520,216L5760,216L5760,360L5520,360L5280,360L5040,360L4800,360L4560,360L4320,360L4080,360L3840,360L3600,360L3360,360L3120,360L2880,360L2640,360L2400,360L2160,360L1920,360L1680,360L1440,360L1200,360L960,360L720,360L480,360L240,360L0,360Z"/><defs><linearGradient id="sw-gradient-1" x1="0" x2="0" y1="1" y2="0"><stop stop-color="rgba(145, 202, 98, 0.38823529411764707)" offset="0%"/><stop stop-color="rgba(71, 128, 119, 0.3607843137254902)" offset="100%"/></linearGradient></defs><path style="transform:translate(0, 50px); opacity:0.9" fill="url(#sw-gradient-1)" d="M0,180L240,36L480,180L720,144L960,108L1200,216L1440,324L1680,324L1920,36L2160,72L2400,36L2640,252L2880,108L3120,36L3360,216L3600,216L3840,72L4080,324L4320,72L4560,144L4800,0L5040,216L5280,288L5520,108L5760,180L5760,360L5520,360L5280,360L5040,360L4800,360L4560,360L4320,360L4080,360L3840,360L3600,360L3360,360L3120,360L2880,360L2640,360L2400,360L2160,360L1920,360L1680,360L1440,360L1200,360L960,360L720,360L480,360L240,360L0,360Z"/><defs><linearGradient id="sw-gradient-2" x1="0" x2="0" y1="1" y2="0"><stop stop-color="rgba(145, 202, 98, 0.38823529411764707)" offset="0%"/><stop stop-color="rgba(71, 128, 119, 0.3607843137254902)" offset="100%"/></linearGradient></defs><path style="transform:translate(0, 100px); opacity:0.8" fill="url(#sw-gradient-2)" d="M0,216L240,216L480,324L720,324L960,144L1200,324L1440,180L1680,180L1920,252L2160,0L2400,324L2640,324L2880,252L3120,108L3360,108L3600,0L3840,72L4080,0L4320,252L4560,36L4800,144L5040,0L5280,252L5520,216L5760,180L5760,360L5520,360L5280,360L5040,360L4800,360L4560,360L4320,360L4080,360L3840,360L3600,360L3360,360L3120,360L2880,360L2640,360L2400,360L2160,360L1920,360L1680,360L1440,360L1200,360L960,360L720,360L480,360L240,360L0,360Z"/></svg>